<svg xmlns="http://www.w3.org/2000/svg" width="48" height="48" viewBox="0 0 48 48" fill="none">
<path d="M6 36V24C6 19.2261 7.89642 14.6477 11.2721 11.2721C14.6477 7.89642 19.2261 6 24 6C28.7739 6 33.3523 7.89642 36.7279 11.2721C40.1036 14.6477 42 19.2261 42 24V36" stroke="black" stroke-width="2" stroke-linecap="round" stroke-linejoin="round"/>
<path d="M40.8284 40.8284C41.5786 40.0783 42 39.0609 42 38V28H36C34.9391 28 33.9217 28.4214 33.1716 29.1716C32.4214 29.9217 32 30.9391 32 32V38C32 39.0609 32.4214 40.0783 33.1716 40.8284C33.9217 41.5786 34.9391 42 36 42H38C39.0609 42 40.0783 41.5786 40.8284 40.8284Z" stroke="black" stroke-width="2" stroke-linecap="round" stroke-linejoin="round"/>
<path d="M7.17157 40.8284C6.42143 40.0783 6 39.0609 6 38V28H12C13.0609 28 14.0783 28.4214 14.8284 29.1716C15.5786 29.9217 16 30.9391 16 32V38C16 39.0609 15.5786 40.0783 14.8284 40.8284C14.0783 41.5786 13.0609 42 12 42H10C8.93913 42 7.92172 41.5786 7.17157 40.8284Z" stroke="black" stroke-width="2" stroke-linecap="round" stroke-linejoin="round"/>
</svg>